<mxfile host="app.diagrams.net" agent="Mozilla/5.0 (Macintosh; Intel Mac OS X 10_15_7) AppleWebKit/537.36 (KHTML, like Gecko) Chrome/137.0.0.0 Safari/537.36 Edg/137.0.0.0" version="27.1.6">
  <diagram name="第 1 页" id="PiF9fHcOkFo9iHuCGfso">
    <mxGraphModel dx="994" dy="561" grid="1" gridSize="10" guides="1" tooltips="1" connect="1" arrows="1" fold="1" page="1" pageScale="1" pageWidth="1169" pageHeight="827" math="0" shadow="0">
      <root>
        <mxCell id="0" />
        <mxCell id="1" parent="0" />
        <mxCell id="Yg5YnwWj7GuqX_L0ba3k-1" value="" style="rounded=0;whiteSpace=wrap;html=1;dashed=1;dashPattern=8 8;" vertex="1" parent="1">
          <mxGeometry x="600" y="250" width="150" height="460" as="geometry" />
        </mxCell>
        <mxCell id="3q4nfxB9VYTOQv-p3-jI-2" value="" style="rounded=0;whiteSpace=wrap;html=1;dashed=1;dashPattern=8 8;" parent="1" vertex="1">
          <mxGeometry x="365" y="250" width="150" height="460" as="geometry" />
        </mxCell>
        <mxCell id="3q4nfxB9VYTOQv-p3-jI-26" style="edgeStyle=orthogonalEdgeStyle;rounded=0;orthogonalLoop=1;jettySize=auto;html=1;exitX=0.5;exitY=1;exitDx=0;exitDy=0;" parent="1" source="3q4nfxB9VYTOQv-p3-jI-6" target="3q4nfxB9VYTOQv-p3-jI-11" edge="1">
          <mxGeometry relative="1" as="geometry" />
        </mxCell>
        <mxCell id="3q4nfxB9VYTOQv-p3-jI-27" value="调用" style="edgeLabel;html=1;align=center;verticalAlign=middle;resizable=0;points=[];" parent="3q4nfxB9VYTOQv-p3-jI-26" vertex="1" connectable="0">
          <mxGeometry x="-0.2261" relative="1" as="geometry">
            <mxPoint as="offset" />
          </mxGeometry>
        </mxCell>
        <mxCell id="3q4nfxB9VYTOQv-p3-jI-6" value="&lt;span style=&quot;background-color: transparent; color: light-dark(rgb(0, 0, 0), rgb(255, 255, 255));&quot;&gt;controller-a&lt;/span&gt;" style="rounded=1;whiteSpace=wrap;html=1;" parent="1" vertex="1">
          <mxGeometry x="380" y="320" width="120" height="60" as="geometry" />
        </mxCell>
        <mxCell id="3q4nfxB9VYTOQv-p3-jI-30" style="edgeStyle=orthogonalEdgeStyle;rounded=0;orthogonalLoop=1;jettySize=auto;html=1;exitX=0.5;exitY=1;exitDx=0;exitDy=0;" parent="1" source="3q4nfxB9VYTOQv-p3-jI-11" target="3q4nfxB9VYTOQv-p3-jI-14" edge="1">
          <mxGeometry relative="1" as="geometry" />
        </mxCell>
        <mxCell id="3q4nfxB9VYTOQv-p3-jI-33" value="调用" style="edgeLabel;html=1;align=center;verticalAlign=middle;resizable=0;points=[];" parent="3q4nfxB9VYTOQv-p3-jI-30" vertex="1" connectable="0">
          <mxGeometry x="-0.2261" y="-1" relative="1" as="geometry">
            <mxPoint as="offset" />
          </mxGeometry>
        </mxCell>
        <mxCell id="3q4nfxB9VYTOQv-p3-jI-11" value="&lt;span style=&quot;background-color: transparent; color: light-dark(rgb(0, 0, 0), rgb(255, 255, 255));&quot;&gt;service-&lt;/span&gt;&lt;span style=&quot;background-color: transparent; color: light-dark(rgb(0, 0, 0), rgb(255, 255, 255));&quot;&gt;interface-a&lt;/span&gt;" style="rounded=1;whiteSpace=wrap;html=1;" parent="1" vertex="1">
          <mxGeometry x="380" y="420" width="120" height="60" as="geometry" />
        </mxCell>
        <mxCell id="3q4nfxB9VYTOQv-p3-jI-32" style="edgeStyle=orthogonalEdgeStyle;rounded=0;orthogonalLoop=1;jettySize=auto;html=1;exitX=0.5;exitY=1;exitDx=0;exitDy=0;entryX=0;entryY=0.5;entryDx=0;entryDy=0;" parent="1" source="3q4nfxB9VYTOQv-p3-jI-14" target="3q4nfxB9VYTOQv-p3-jI-24" edge="1">
          <mxGeometry relative="1" as="geometry" />
        </mxCell>
        <mxCell id="3q4nfxB9VYTOQv-p3-jI-34" value="调用" style="edgeLabel;html=1;align=center;verticalAlign=middle;resizable=0;points=[];" parent="3q4nfxB9VYTOQv-p3-jI-32" vertex="1" connectable="0">
          <mxGeometry x="-0.1391" y="1" relative="1" as="geometry">
            <mxPoint as="offset" />
          </mxGeometry>
        </mxCell>
        <mxCell id="3q4nfxB9VYTOQv-p3-jI-14" value="&lt;span style=&quot;background-color: transparent; color: light-dark(rgb(0, 0, 0), rgb(255, 255, 255));&quot;&gt;service-impl-a&lt;/span&gt;" style="rounded=1;whiteSpace=wrap;html=1;" parent="1" vertex="1">
          <mxGeometry x="380" y="520" width="120" height="60" as="geometry" />
        </mxCell>
        <mxCell id="3q4nfxB9VYTOQv-p3-jI-22" value="&lt;b&gt;&lt;font style=&quot;font-size: 14px;&quot;&gt;module-a-core&lt;/font&gt;&lt;/b&gt;" style="text;html=1;align=center;verticalAlign=middle;whiteSpace=wrap;rounded=0;" parent="1" vertex="1">
          <mxGeometry x="373.75" y="250" width="132.5" height="30" as="geometry" />
        </mxCell>
        <mxCell id="3q4nfxB9VYTOQv-p3-jI-24" value="&lt;span style=&quot;background-color: transparent; color: light-dark(rgb(0, 0, 0), rgb(255, 255, 255));&quot;&gt;dao-a&lt;/span&gt;" style="rounded=1;whiteSpace=wrap;html=1;" parent="1" vertex="1">
          <mxGeometry x="615" y="610" width="120" height="60" as="geometry" />
        </mxCell>
        <mxCell id="Yg5YnwWj7GuqX_L0ba3k-2" value="&lt;b&gt;&lt;font style=&quot;font-size: 14px;&quot;&gt;module-a-dao&lt;/font&gt;&lt;/b&gt;" style="text;html=1;align=center;verticalAlign=middle;whiteSpace=wrap;rounded=0;" vertex="1" parent="1">
          <mxGeometry x="608.75" y="250" width="132.5" height="30" as="geometry" />
        </mxCell>
      </root>
    </mxGraphModel>
  </diagram>
</mxfile>
